<svg width="37" height="44" viewBox="0 0 37 44" fill="none" xmlns="http://www.w3.org/2000/svg">
<path d="M3.50305 32.9333C14.5052 33.567 17.6468 40.4677 17.8175 44H10.1636C8.95976 37.6945 4.34367 35.6744 1.28632 35.327C2.09814 34.605 2.84077 33.8031 3.50305 32.9333Z" fill="white"/>
<path d="M5.886 28.6391C11.7409 28.9714 27.7395 31.0628 27.7395 44H20.4634C18.0857 34.9765 10.2519 31.7604 4.73985 31.0666C5.18152 30.2944 5.56555 29.4832 5.886 28.6391Z" fill="white"/>
<path d="M6.99748 23.2033C14.2969 22.9526 30.9627 22.69 37 35.7786L30.1412 42.866C27.9724 30.2349 14.6196 26.6342 6.60495 26.2264C6.82035 25.248 6.95387 24.2377 6.99748 23.2033Z" fill="white"/>
<path d="M37 8.22143C30.9455 21.3472 14.2021 21.0455 6.93547 20.7942C6.84277 19.8093 6.6685 18.8491 6.41956 17.9206C14.4029 17.55 27.9525 13.8811 30.1412 1.13402L37 8.22143Z" fill="white"/>
<path d="M27.7395 0C27.7395 13.4062 11.0544 15.1768 5.52706 15.3957C5.1492 14.5445 4.70531 13.7309 4.20176 12.9619C9.72873 12.4363 18.0072 9.45848 20.4634 0H27.7395Z" fill="white"/>
<path d="M17.8175 0C17.6422 3.55379 14.3331 10.5875 2.59332 10.8771C1.81087 10.0109 0.941653 9.22894 0 8.54547C2.83694 8.66626 8.77391 7.1305 10.1636 0H17.8175Z" fill="white"/>
</svg>
